#!OML:ASF H:\MichaelJackson\Top Level 1\Subject 1\Session 1\male.ASF
:FULLY-SPECIFIED
:DEGREES
99
root 9.39835 15.782 -26.6795 14.618 -22.5446 -6.182
lowerback -1.18559 4.08111 1.03365
upperback -0.11864 5.42763 0.144521
thorax 0.622306 2.71606 -0.331783
lowerneck -4.65523 0.883089 1.17806
upperneck -3.90216 1.15766 1.86676
head -0.430272 0.55815 0.383431
rclavicle 6.64935e-014 -2.38542e-015
rhumerus -28.3181 17.1695 -95.7634
rradius 45.3884
rwrist 9.6907
rhand -21.4431 -19.8042
rfingers 7.12502
rthumb 4.94648 -49.7265
lclavicle 6.64935e-014 -2.38542e-015
lhumerus -45.1935 -7.31399 94.1836
lradius 47.8851
lwrist 23.9115
lhand -9.99465 8.22432
lfingers 7.12502
lthumb 15.9888 37.5845
rfemur 12.599 -6.63305 25.7006
rtibia 12.9876
rfoot -21.2082 -15.9215
rtoes -22.063
lfemur -53.7992 3.09512 -14.0726
ltibia 27.2173
lfoot -15.6933 10.4589
ltoes 25.4078
100
root 9.34679 15.7513 -26.5087 14.5661 -22.348 -6.08839
lowerback -1.11509 4.09151 0.965493
upperback -0.12905 5.44384 0.0563222
thorax 0.57474 2.72395 -0.389643
lowerneck -4.55482 0.814291 1.27112
upperneck -4.06206 1.06771 1.89155
head -0.49415 0.509489 0.374384
rclavicle 7.59357e-014 -1.55052e-014
rhumerus -28.2472 16.8685 -95.5918
rradius 45.2623
rwrist 9.82193
rhand -21.593 -19.1963
rfingers 7.12502
rthumb 4.80182 -49.1219
lclavicle 7.59357e-014 -1.55052e-014
lhumerus -45.3264 -7.46024 94.1527
lradius 47.8874
lwrist 24.005
lhand -9.87429 8.27473
lfingers 7.12502
lthumb 16.1047 37.6256
rfemur 13.0951 -6.87303 25.429
rtibia 13.2994
rfoot -20.7018 -15.8462
rtoes -23.9105
lfemur -54.005 3.43563 -14.6946
ltibia 28.0025
lfoot -14.3025 9.05098
ltoes 27.5361
101
root 9.29583 15.7243 -26.3354 14.48 -22.1139 -5.969
lowerback -1.0026 4.10363 0.883684
upperback -0.128066 5.46264 -0.0384574
thorax 0.51482 2.73312 -0.449474
lowerneck -4.42555 0.734186 1.35347
upperneck -4.26896 0.965644 1.94057
head -0.577323 0.453956 0.374416
rclavicle -4.1049e-014 -1.82882e-014
rhumerus -28.1971 16.4511 -95.378
rradius 45.1368
rwrist 9.92228
rhand -21.8306 -18.6573
rfingers 7.12502
rthumb 4.57232 -48.5879
lclavicle -4.1049e-014 -1.82882e-014
lhumerus -45.4145 -7.62641 94.1219
lradius 47.8509
lwrist 24.0795
lhand -9.77055 8.41384
lfingers 7.12502
lthumb 16.2046 37.7566
rfemur 13.4617 -7.11788 25.1408
rtibia 13.8904
rfoot -20.1465 -15.7826
rtoes -25.7462
lfemur -54.2016 3.66286 -15.2683
ltibia 28.8844
lfoot -12.5803 7.77622
ltoes 29.68
102
root 9.24537 15.7019 -26.1601 14.3591 -21.837 -5.81031
lowerback -0.845302 4.11457 0.772774
upperback -0.118214 5.48016 -0.142993
thorax 0.437192 2.74157 -0.506474
lowerneck -4.28065 0.643433 1.42636
upperneck -4.50633 0.851993 2.01707
head -0.672837 0.39194 0.384508
rclavicle -4.27387e-015 4.37326e-015
rhumerus -28.1787 15.9122 -95.1252
rradius 45.0159
rwrist 9.98451
rhand -22.1123 -18.2269
rfingers 7.12502
rthumb 4.30033 -48.1633
lclavicle -4.27387e-015 4.37326e-015
lhumerus -45.4537 -7.79911 94.081
lradius 47.7673
lwrist 24.118
lhand -9.67089 8.58581
lfingers 7.12502
lthumb 16.3006 37.9207
rfemur 13.6564 -7.39201 24.8192
rtibia 14.8197
rfoot -19.5311 -15.7284
rtoes -27.6156
lfemur -54.3859 3.75857 -15.7848
ltibia 29.854
lfoot -10.7067 6.71868
ltoes 31.5389
103
root 9.19527 15.6841 -25.9838 14.2113 -21.5083 -5.61248
lowerback -0.630958 4.11615 0.620792
upperback -0.109494 5.48522 -0.248401
thorax 0.322607 2.74362 -0.54671
lowerneck -4.12713 0.546919 1.48176
upperneck -4.75198 0.733013 2.11624
head -0.772921 0.326942 0.404691
rclavicle -1.68967e-015 -6.75868e-015
rhumerus -28.2117 15.272 -94.8357
rradius 44.9021
rwrist 9.99429
rhand -22.4823 -17.8798
rfingers 7.12502
rthumb 3.94303 -47.823
lclavicle -1.68967e-015 -6.75868e-015
lhumerus -45.454 -7.94708 94.0285
lradius 47.6322
lwrist 24.1006
lhand -9.61737 8.74487
lfingers 7.12502
lthumb 16.3521 38.0755
rfemur 13.6405 -7.69567 24.4764
rtibia 16.1357
rfoot -18.8573 -15.6713
rtoes -29.3868
lfemur -54.5619 3.76116 -16.2745
ltibia 30.895
lfoot -8.85263 5.86473
ltoes 32.9497
104
root 9.14566 15.6709 -25.8062 14.0482 -21.1209 -5.37441
lowerback -0.394211 4.10831 0.430521
upperback -0.0947708 5.47687 -0.354018
thorax 0.19791 2.73898 -0.567812
lowerneck -3.9832 0.440184 1.52948
upperneck -4.99198 0.601364 2.22619
head -0.870178 0.255464 0.429825
rclavicle 4.23411e-014 -1.59028e-014
rhumerus -28.2938 14.5347 -94.5045
rradius 44.8002
rwrist 9.93581
rhand -22.7947 -17.7637
rfingers 7.12502
rthumb 3.64136 -47.7123
lclavicle 4.23411e-014 -1.59028e-014
lhumerus -45.4104 -8.06931 93.9651
lradius 47.4501
lwrist 24.0165
lhand -9.60859 8.86328
lfingers 7.12502
lthumb 16.3605 38.1932
rfemur 13.3854 -8.07219 24.0957
rtibia 17.8683
rfoot -18.101 -15.5609
rtoes -31.0112
lfemur -54.7245 3.68591 -16.758
ltibia 31.9911
lfoot -7.21743 5.17813
ltoes 33.6612
